<mxfile host="65bd71144e">
    <diagram id="QO7WhuVRRAjgL63kr4it" name="PÃ¡gina-1">
        <mxGraphModel dx="970" dy="777" grid="0" gridSize="10" guides="1" tooltips="1" connect="1" arrows="1" fold="1" page="1" pageScale="1" pageWidth="1400" pageHeight="800" background="#ffffff" math="0" shadow="0">
            <root>
                <mxCell id="0"/>
                <mxCell id="1" parent="0"/>
                <mxCell id="2" value="" style="edgeStyle=none;orthogonalLoop=1;jettySize=auto;html=1;strokeWidth=4;strokeColor=#030303;" parent="1" edge="1">
                    <mxGeometry width="100" relative="1" as="geometry">
                        <mxPoint x="320" y="211" as="sourcePoint"/>
                        <mxPoint x="1151" y="211" as="targetPoint"/>
                        <Array as="points"/>
                    </mxGeometry>
                </mxCell>
                <mxCell id="4" value="" style="edgeStyle=none;orthogonalLoop=1;jettySize=auto;html=1;strokeWidth=4;strokeColor=#030303;" parent="1" edge="1">
                    <mxGeometry width="100" relative="1" as="geometry">
                        <mxPoint x="330" y="371" as="sourcePoint"/>
                        <mxPoint x="1165" y="371" as="targetPoint"/>
                        <Array as="points"/>
                    </mxGeometry>
                </mxCell>
                <mxCell id="5" value="" style="edgeStyle=none;orthogonalLoop=1;jettySize=auto;html=1;strokeWidth=4;strokeColor=#030303;" parent="1" edge="1">
                    <mxGeometry width="100" relative="1" as="geometry">
                        <mxPoint x="320" y="531" as="sourcePoint"/>
                        <mxPoint x="1156" y="526" as="targetPoint"/>
                        <Array as="points"/>
                    </mxGeometry>
                </mxCell>
                <mxCell id="6" value="" style="edgeStyle=none;orthogonalLoop=1;jettySize=auto;html=1;strokeWidth=4;strokeColor=#030303;dashed=1;" parent="1" edge="1">
                    <mxGeometry width="100" relative="1" as="geometry">
                        <mxPoint x="363" y="532" as="sourcePoint"/>
                        <mxPoint x="513" y="212" as="targetPoint"/>
                        <Array as="points"/>
                    </mxGeometry>
                </mxCell>
                <mxCell id="7" value="m1" style="text;html=1;align=center;verticalAlign=middle;resizable=0;points=[];autosize=1;strokeColor=none;fillColor=none;fontColor=#030303;fontSize=26;rotation=0;" parent="1" vertex="1">
                    <mxGeometry x="386" y="304" width="54" height="43" as="geometry"/>
                </mxCell>
                <mxCell id="8" value="m3" style="text;html=1;align=center;verticalAlign=middle;resizable=0;points=[];autosize=1;strokeColor=none;fillColor=none;fontColor=#030303;fontSize=26;rotation=0;" parent="1" vertex="1">
                    <mxGeometry x="879" y="284" width="54" height="43" as="geometry"/>
                </mxCell>
                <mxCell id="9" value="" style="edgeStyle=none;orthogonalLoop=1;jettySize=auto;html=1;strokeWidth=4;strokeColor=#030303;dashed=1;" parent="1" edge="1">
                    <mxGeometry width="100" relative="1" as="geometry">
                        <mxPoint x="833" y="214" as="sourcePoint"/>
                        <mxPoint x="951" y="528" as="targetPoint"/>
                        <Array as="points"/>
                    </mxGeometry>
                </mxCell>
                <mxCell id="10" value="m2" style="text;html=1;align=center;verticalAlign=middle;resizable=0;points=[];autosize=1;strokeColor=none;fillColor=none;fontColor=#030303;fontSize=26;rotation=0;" parent="1" vertex="1">
                    <mxGeometry x="680" y="386" width="54" height="43" as="geometry"/>
                </mxCell>
                <mxCell id="11" value="" style="edgeStyle=none;orthogonalLoop=1;jettySize=auto;html=1;strokeWidth=4;strokeColor=#030303;dashed=1;" parent="1" edge="1">
                    <mxGeometry width="100" relative="1" as="geometry">
                        <mxPoint x="657" y="370" as="sourcePoint"/>
                        <mxPoint x="716" y="529" as="targetPoint"/>
                        <Array as="points"/>
                    </mxGeometry>
                </mxCell>
                <mxCell id="16" value="" style="endArrow=none;dashed=1;html=1;dashPattern=1 3;strokeWidth=2;strokeColor=#030303;fontSize=26;fontColor=#030303;curved=1;" parent="1" edge="1">
                    <mxGeometry width="50" height="50" relative="1" as="geometry">
                        <mxPoint x="741" y="213" as="sourcePoint"/>
                        <mxPoint x="1021" y="519" as="targetPoint"/>
                        <Array as="points">
                            <mxPoint x="628" y="282"/>
                            <mxPoint x="564" y="395"/>
                            <mxPoint x="765" y="474"/>
                        </Array>
                    </mxGeometry>
                </mxCell>
                <mxCell id="17" value="c2" style="text;html=1;align=center;verticalAlign=middle;resizable=0;points=[];autosize=1;strokeColor=none;fillColor=none;fontColor=#030303;fontSize=26;rotation=0;" parent="1" vertex="1">
                    <mxGeometry x="579" y="250" width="45" height="43" as="geometry"/>
                </mxCell>
            </root>
        </mxGraphModel>
    </diagram>
</mxfile>